<?xml version="1.0" standalone="no"?>
<!DOCTYPE svg PUBLIC "-//W3C//DTD SVG 20010904//EN"
 "http://www.w3.org/TR/2001/REC-SVG-20010904/DTD/svg10.dtd">
<svg version="1.0" xmlns="http://www.w3.org/2000/svg"
 width="149.000000pt" height="63.000000pt" viewBox="0 0 149.000000 63.000000"
 preserveAspectRatio="xMidYMid meet">

<g transform="translate(0.000000,63.000000) scale(0.100000,-0.100000)"
fill="#000000" stroke="none">
<path d="M93 603 c-12 -2 -27 -11 -33 -19 -7 -8 -18 -14 -26 -14 -7 0 -16 -9
-19 -20 -11 -36 57 -80 94 -61 11 6 21 7 23 2 2 -5 30 -1 63 10 69 21 240 35
309 25 46 -7 46 -8 43 -41 -2 -18 -10 -44 -19 -57 -19 -29 -165 -121 -173
-108 -3 5 -1 11 5 15 5 3 10 33 10 65 0 53 -3 61 -26 76 -40 27 -120 31 -146
8 -19 -18 -20 -26 -15 -131 5 -103 4 -111 -14 -116 -29 -8 -35 -37 -12 -56 16
-12 21 -29 22 -75 3 -78 13 -96 54 -96 52 0 65 17 79 100 12 74 25 100 48 100
46 0 239 135 240 168 0 6 6 12 14 12 8 0 16 7 20 15 3 8 23 22 46 31 22 9 40
23 40 30 0 10 7 13 24 8 13 -3 40 -1 60 4 27 8 35 8 29 -1 -12 -21 -76 -101
-125 -155 -27 -30 -51 -64 -54 -77 -3 -13 -12 -26 -20 -29 -8 -3 -14 -17 -14
-31 0 -16 -6 -25 -15 -25 -26 0 -41 -46 -25 -75 13 -25 53 -35 65 -16 3 5 20
13 38 16 17 4 46 13 62 20 58 25 245 48 245 30 0 -6 6 -19 13 -28 11 -17 17
-16 82 11 74 30 208 56 266 51 53 -5 96 9 103 34 9 35 7 41 -15 55 -17 11 -24
11 -42 0 -12 -8 -40 -15 -62 -17 -22 -1 -62 -7 -89 -12 -27 -5 -57 -9 -68 -9
-17 0 -17 2 4 33 13 17 26 34 29 37 3 3 10 13 15 22 5 9 56 64 113 123 76 78
106 103 113 93 11 -18 28 8 28 46 l0 28 -57 -7 c-32 -4 -65 -11 -73 -15 -8 -4
-59 -13 -114 -20 -54 -6 -119 -18 -144 -25 -57 -18 -64 -13 -17 9 28 13 35 23
33 39 -3 20 -8 22 -63 20 -33 0 -130 -13 -215 -28 -239 -41 -222 -40 -266 -13
-72 44 -85 46 -270 46 -98 0 -189 -2 -201 -5z m939 -140 c16 -34 27 -33 131 3
42 15 80 24 83 21 7 -6 -126 -177 -137 -177 -4 0 -16 -16 -28 -35 -28 -48 -75
-64 -238 -80 -91 -9 -92 -3 -22 91 51 69 177 204 191 204 4 0 13 -12 20 -27z"/>
</g>
</svg>
